<svg width="21" height="20" viewBox="0 0 21 20" fill="none" xmlns="http://www.w3.org/2000/svg">
<path d="M17.9461 2.92892C16.0573 1.04019 13.5461 0 10.875 0C8.20395 0 5.69266 1.04019 3.80392 2.92892C1.91519 4.81766 0.875 7.32895 0.875 10C0.875 12.6711 1.91519 15.1823 3.80392 17.0711C5.69266 18.9598 8.20395 20 10.875 20C13.5461 20 16.0573 18.9598 17.9461 17.0711C19.8348 15.1823 20.875 12.6711 20.875 10C20.875 7.32895 19.8348 4.81766 17.9461 2.92892ZM5.21506 16.7694C5.54526 13.9282 7.98804 11.7346 10.875 11.7346C12.3969 11.7346 13.828 12.3276 14.9045 13.4039C15.814 14.3135 16.3875 15.5011 16.5351 16.7693C15.0016 18.0536 13.0271 18.8281 10.875 18.8281C8.7229 18.8281 6.74857 18.0537 5.21506 16.7694ZM10.875 10.5276C9.20035 10.5276 7.83774 9.16504 7.83774 7.49039C7.83774 5.81558 9.20035 4.45312 10.875 4.45312C12.5497 4.45312 13.9123 5.81558 13.9123 7.49039C13.9123 9.16504 12.5497 10.5276 10.875 10.5276ZM17.5437 15.7787C17.2451 14.5747 16.6224 13.4647 15.7331 12.5754C15.0129 11.8552 14.1608 11.3148 13.2316 10.9763C14.3487 10.2187 15.0841 8.93875 15.0841 7.49039C15.0841 5.16953 13.1959 3.28125 10.875 3.28125C8.55414 3.28125 6.66586 5.16953 6.66586 7.49039C6.66586 8.93951 7.40195 10.2199 8.51996 10.9773C7.66501 11.2889 6.87384 11.7706 6.19315 12.4048C5.20743 13.3228 4.52292 14.4933 4.20554 15.7777C2.86139 14.2282 2.04688 12.2075 2.04688 10C2.04688 5.13214 6.00714 1.17188 10.875 1.17188C15.7429 1.17188 19.7031 5.13214 19.7031 10C19.7031 12.2079 18.8883 14.2291 17.5437 15.7787Z" fill="#E3E3E3"/>
</svg>
