<svg width="23" height="20" viewBox="0 0 23 20" fill="none" xmlns="http://www.w3.org/2000/svg">
<path d="M21.0538 3.87097H20.086V2.90323C20.086 2.36959 19.6519 1.93548 19.1183 1.93548H18.1505V0.967742C18.1505 0.434151 17.7164 0 17.1828 0H4.83867C4.30503 0 3.87092 0.434108 3.87092 0.967742V1.93548H2.90323C2.36959 1.93548 1.93548 2.36959 1.93548 2.90323V3.87097H0.967742C0.434108 3.87097 0 4.30508 0 4.83871V19.0323C0 19.5658 0.434108 20 0.967742 20H18.1505V19.3548H0.967742C0.789892 19.3548 0.645161 19.2101 0.645161 19.0323V4.83871C0.645161 4.66086 0.789892 4.51613 0.967742 4.51613H21.0538C21.2316 4.51613 21.3763 4.66086 21.3763 4.83871V19.0323C21.3763 19.2101 21.2316 19.3548 21.0538 19.3548H20.086V20H21.0538C21.5874 20 22.0215 19.5659 22.0215 19.0323V4.83871C22.0215 4.30508 21.5874 3.87097 21.0538 3.87097ZM2.58065 2.90323C2.58065 2.72538 2.72533 2.58065 2.90323 2.58065H5.48383V1.93548H4.51609V0.967742C4.51609 0.789892 4.66077 0.645161 4.83867 0.645161H17.1828C17.3607 0.645161 17.5054 0.789849 17.5054 0.967742V1.93548H6.12899V2.58065H19.1183C19.2962 2.58065 19.4409 2.72538 19.4409 2.90323V3.87097H2.58065V2.90323Z" fill="#E3E3E3"/>
<path d="M18.7957 19.3547H19.4408V19.9999H18.7957V19.3547Z" fill="#E3E3E3"/>
<path d="M9.41797 14.4017L13.6837 11.9641L9.41797 9.52649V14.4017ZM10.0631 10.6382L12.3834 11.9641L10.0631 13.2899V10.6382Z" fill="#E3E3E3"/>
<path d="M6.172 11.9354C6.172 14.6035 8.34262 16.7741 11.0107 16.7741C13.6788 16.7741 15.8494 14.6035 15.8494 11.9354C15.8494 9.2673 13.6788 7.09668 11.0107 7.09668C8.34262 7.09668 6.172 9.2673 6.172 11.9354ZM15.2043 11.9354C15.2043 14.2477 13.3231 16.1289 11.0107 16.1289C8.69836 16.1289 6.81716 14.2477 6.81716 11.9354C6.81716 9.62309 8.69836 7.74184 11.0107 7.74184C13.3231 7.74184 15.2043 9.62305 15.2043 11.9354Z" fill="#E3E3E3"/>
<path d="M20.0861 5.16125H20.7312V5.80642H20.0861V5.16125Z" fill="#E3E3E3"/>
<path d="M20.0861 6.45166H20.7312V7.09682H20.0861V6.45166Z" fill="#E3E3E3"/>
</svg>
