<svg width="12" height="12" viewBox="0 0 12 12" fill="none" xmlns="http://www.w3.org/2000/svg">
<path d="M4.64478 2.72511V3.88511H1.46144V10.2651H8.46478V7.36511H9.73811V10.8451C9.73811 10.9989 9.67103 11.1465 9.55164 11.2552C9.43224 11.364 9.2703 11.4251 9.10144 11.4251H0.824777C0.655923 11.4251 0.493984 11.364 0.374586 11.2552C0.255188 11.1465 0.18811 10.9989 0.18811 10.8451V3.30511C0.18811 3.15128 0.255188 3.00376 0.374586 2.89499C0.493984 2.78621 0.655923 2.72511 0.824777 2.72511H4.64478ZM11.6481 0.985107V6.20511L9.2326 4.00517L5.41323 7.48517L4.51299 6.66505L8.33235 3.18505L5.91811 0.985107H11.6481Z" fill="white"/>
</svg>
