<svg width="13" height="12" viewBox="0 0 13 12" fill="none" xmlns="http://www.w3.org/2000/svg">
<path d="M3.39299 12C3.26973 12 3.14733 11.9572 3.04287 11.8731C2.84829 11.7162 2.75739 11.4464 2.81035 11.186L3.5341 7.6375L1.07962 5.24163C0.8992 5.06632 0.830277 4.78869 0.90435 4.53466C0.978424 4.2811 1.17996 4.10159 1.41857 4.07703L4.66614 3.74887L5.95012 0.404407C6.04479 0.158687 6.2604 0 6.49996 0C6.73952 0 6.95513 0.158687 7.04981 0.403834L8.33378 3.74887L11.5808 4.07703C11.82 4.10101 12.0215 4.2811 12.0956 4.53466C12.1696 4.78821 12.1012 5.06632 11.9207 5.24163L9.46626 7.63702L10.19 11.1855C10.243 11.4464 10.1521 11.7162 9.95756 11.8726C9.7635 12.0291 9.50471 12.0412 9.30034 11.9045L6.49996 10.0418L3.69958 11.9055C3.60491 11.9681 3.49942 12 3.39299 12ZM6.49996 9.23937C6.60639 9.23937 6.7118 9.27118 6.80656 9.33376L9.44943 11.0932L8.76638 7.74393C8.71762 7.50557 8.79032 7.25669 8.95581 7.09543L11.2734 4.83311L8.20718 4.52319C7.98641 4.50074 7.79655 4.34626 7.71029 4.11983L6.49996 0.96368L5.28817 4.12031C5.20286 4.34521 5.01299 4.49969 4.79275 4.52214L1.72611 4.83206L4.0436 7.09437C4.2096 7.25612 4.28221 7.50451 4.23303 7.74345L3.55049 11.0926L6.19337 9.33376C6.28804 9.27118 6.39353 9.23937 6.49996 9.23937ZM4.64134 3.81354C4.64134 3.81354 4.64134 3.81412 4.64082 3.81459L4.64134 3.81354ZM8.35764 3.81202L8.35816 3.81307C8.35816 3.81249 8.35816 3.81249 8.35764 3.81202Z" fill="#191D29"/>
</svg>
