<svg width="13" height="12" viewBox="0 0 13 12" fill="none" xmlns="http://www.w3.org/2000/svg">
<path d="M12.0957 4.53466C12.022 4.2811 11.82 4.10101 11.5809 4.07703L8.33386 3.74887L7.04989 0.403834C6.95522 0.158687 6.7396 0 6.50005 0C6.26049 0 6.04487 0.158687 5.9502 0.404407L4.66623 3.74887L1.41866 4.07703C1.18005 4.10159 0.978513 4.2811 0.904439 4.53466C0.830366 4.78821 0.898774 5.06632 1.07928 5.24163L3.53367 7.6375L2.80993 11.186C2.75697 11.4469 2.84795 11.7166 3.04245 11.8731C3.14699 11.9572 3.2693 12 3.39264 12C3.49899 12 3.60448 11.9681 3.69915 11.905L6.50005 10.0418L9.29991 11.905C9.50479 12.0422 9.76306 12.0297 9.95713 11.8731C10.1517 11.7162 10.2426 11.4464 10.1897 11.186L9.46591 7.6375L11.9203 5.24211C12.1008 5.06632 12.1697 4.78869 12.0957 4.53466Z" fill="#FFC107"/>
</svg>
